<?xml version="1.0" standalone="no"?>
<!DOCTYPE svg PUBLIC "-//W3C//DTD SVG 20010904//EN"
 "http://www.w3.org/TR/2001/REC-SVG-20010904/DTD/svg10.dtd">
<svg version="1.0" xmlns="http://www.w3.org/2000/svg"
 width="150.000000pt" height="150.000000pt" viewBox="0 0 150.000000 150.000000"
 preserveAspectRatio="xMidYMid meet">
<metadata>
Created by potrace 1.10, written by Peter Selinger 2001-2011
</metadata>
<g transform="translate(0.000000,150.000000) scale(0.100000,-0.100000)"
fill="#000000" stroke="none">
<path d="M60 750 c0 -160 4 -250 10 -250 6 0 10 90 10 250 0 160 -4 250 -10
250 -6 0 -10 -90 -10 -250z"/>
<path d="M100 750 c0 -160 4 -250 10 -250 6 0 10 90 10 250 0 160 -4 250 -10
250 -6 0 -10 -90 -10 -250z"/>
<path d="M140 750 c0 -137 4 -250 8 -250 4 0 22 28 39 63 25 48 32 56 32 37 1
-14 -8 -40 -19 -58 -22 -36 -24 -42 -12 -42 5 0 14 10 20 22 l11 23 0 -22 c1
-13 5 -23 11 -23 5 0 9 97 10 250 0 138 -3 250 -8 250 -4 0 -22 -28 -39 -62
-25 -49 -32 -57 -32 -38 -1 14 8 40 19 58 22 36 24 42 12 42 -5 0 -14 -10 -20
-22 l-11 -23 0 23 c-1 12 -5 22 -11 22 -6 0 -10 -90 -10 -250z m78 132 c0 -58
-4 -77 -29 -118 -23 -40 -29 -44 -29 -25 0 13 12 45 27 72 14 27 24 52 20 55
-3 3 -15 -11 -26 -33 -16 -31 -20 -34 -21 -16 0 18 48 133 56 133 1 0 2 -31 2
-68z m-22 -188 c-33 -59 -34 -82 -1 -29 22 36 24 38 24 15 0 -14 -13 -50 -29
-80 l-28 -55 0 70 c0 57 5 79 26 119 22 41 28 46 30 28 2 -13 -8 -43 -22 -68z"/>
<path d="M260 750 c0 -160 4 -250 10 -250 6 0 10 90 10 250 0 160 -4 250 -10
250 -6 0 -10 -90 -10 -250z"/>
<path d="M300 755 l0 -245 26 0 c65 0 135 64 150 137 12 61 -35 148 -95 172
l-29 12 24 24 c33 33 32 81 -3 117 -15 15 -37 28 -50 28 l-23 0 0 -245z m76
190 c14 -21 14 -30 4 -55 -11 -27 -36 -50 -54 -50 -14 0 -4 23 16 39 16 14 19
24 14 44 -3 15 -11 27 -17 27 -6 0 -6 -6 0 -19 7 -13 6 -24 -4 -37 -13 -17
-14 -13 -13 38 1 53 2 57 19 47 11 -5 26 -21 35 -34z m22 -151 c61 -40 81
-137 41 -201 -20 -32 -49 -53 -96 -67 -40 -13 -26 18 17 36 103 43 103 179 -1
225 -21 9 -39 21 -39 26 0 12 48 0 78 -19z m-28 -29 c37 -19 50 -43 50 -93 0
-47 -27 -85 -70 -100 -43 -15 -48 4 -6 22 64 27 77 97 25 140 -17 14 -35 26
-40 26 -5 0 -9 5 -9 10 0 14 16 12 50 -5z m10 -64 c13 -33 0 -75 -29 -90 -25
-14 -31 -14 -31 2 0 7 9 18 20 25 11 7 20 21 20 32 0 11 -9 29 -20 40 -28 28
-26 42 4 28 14 -6 30 -23 36 -37z m-41 -42 c-14 -28 -19 -23 -19 19 1 34 2 36
15 18 10 -13 11 -24 4 -37z"/>
<path d="M585 757 c-66 -133 -121 -245 -123 -249 -2 -5 0 -8 5 -8 5 0 27 36
48 80 l39 80 78 0 78 0 41 -81 41 -82 22 38 c17 27 25 33 29 22 3 -8 -1 -24
-9 -36 -9 -13 -11 -21 -4 -21 6 0 13 7 16 15 6 14 8 13 20 -2 29 -39 10 5 -86
197 -55 110 -100 204 -100 210 0 31 26 -12 120 -203 123 -248 109 -222 116
-215 3 4 -45 106 -106 227 -64 126 -108 226 -104 232 4 7 57 -85 128 -227
l121 -239 5 228 5 228 73 -147 c40 -80 75 -145 77 -143 1 2 36 69 77 148 l73
145 5 -230 5 -229 37 70 c26 49 37 63 38 47 0 -12 -9 -40 -20 -62 -22 -44 -24
-50 -11 -50 5 0 12 12 17 28 l7 27 7 -30 c4 -16 8 84 9 223 0 138 -1 252 -4
252 -3 0 -20 -30 -39 -67 -24 -47 -35 -61 -36 -45 0 12 9 41 21 63 11 23 18
43 15 46 -3 3 -11 -7 -18 -23 l-13 -28 -6 30 c-5 27 -7 25 -45 -49 l-39 -77
-38 75 c-20 41 -42 75 -47 75 -6 0 9 -38 33 -85 24 -46 41 -89 38 -94 -4 -5
-29 33 -56 84 -28 52 -54 95 -58 95 -5 0 16 -46 47 -103 36 -68 52 -107 46
-117 -6 -9 -26 22 -68 106 l-59 118 -20 -38 c-12 -24 -23 -34 -27 -28 -4 7 -2
20 4 31 14 28 12 39 -4 18 -14 -18 -15 -18 -25 0 -7 13 -11 -47 -11 -217 l-1
-235 -114 233 c-62 127 -117 232 -122 232 -4 -1 -62 -110 -128 -243z m446 162
c-22 -39 -37 -19 -16 21 12 23 19 29 25 20 4 -7 1 -25 -9 -41z m285 -71 c-46
-82 -49 -45 -3 48 27 56 32 62 35 40 2 -16 -10 -50 -32 -88z m-265 31 c-22
-39 -37 -19 -16 21 12 23 19 29 25 20 4 -7 1 -25 -9 -41z m-381 -40 c-8 -19
-16 -27 -22 -21 -6 6 -3 22 8 43 21 40 32 22 14 -22z m402 -1 c-23 -39 -38
-19 -17 22 13 25 19 29 25 19 5 -8 2 -24 -8 -41z m244 -69 c-46 -83 -50 -45
-4 44 25 47 33 57 36 41 2 -12 -13 -50 -32 -85z m-626 30 c-8 -19 -16 -27 -22
-21 -6 6 -3 22 8 43 21 40 32 22 14 -22z m401 0 c-9 -16 -20 -24 -25 -19 -4 4
0 22 10 39 11 18 21 26 25 20 4 -6 -1 -24 -10 -40z m-453 -117 c-33 -2 -62 -1
-65 1 -2 3 10 33 28 68 l32 63 32 -64 33 -65 -60 -3z m72 77 c-8 -19 -16 -27
-22 -21 -6 6 -3 22 8 43 21 40 32 22 14 -22z m405 1 c-11 -22 -20 -29 -27 -22
-6 6 -4 20 7 42 11 22 20 29 27 22 6 -6 4 -20 -7 -42z m201 -72 c-46 -82 -50
-44 -4 45 26 49 33 57 36 40 2 -13 -12 -50 -32 -85z m-585 31 c-22 -39 -37
-19 -16 21 12 23 19 29 25 20 4 -7 1 -25 -9 -41z m402 6 c-9 -20 -21 -31 -25
-27 -10 10 23 73 34 66 4 -3 0 -20 -9 -39z m-383 -46 c-8 -19 -16 -27 -22 -21
-6 6 -3 22 8 43 21 40 32 22 14 -22z m566 -76 c-29 -56 -35 -63 -36 -40 0 38
63 160 68 130 2 -12 -13 -52 -32 -90z m-546 36 c-8 -19 -16 -27 -22 -21 -6 6
-3 22 8 43 21 40 32 22 14 -22z m21 -40 c-22 -39 -37 -19 -16 21 12 23 19 29
25 20 4 -7 1 -25 -9 -41z m22 -42 c-10 -20 -18 -26 -25 -19 -6 6 -4 21 7 42
13 24 19 29 25 20 5 -8 2 -26 -7 -43z"/>
<path d="M1394 750 c0 -140 2 -198 3 -128 2 71 2 185 0 255 -1 71 -3 13 -3
-127z"/>
<path d="M1434 750 c0 -140 2 -198 3 -128 2 71 2 185 0 255 -1 71 -3 13 -3
-127z"/>
</g>
</svg>
